<?xml version="1.0" encoding="UTF-8" standalone="no"?>
<svg width="10px" height="10px" viewBox="0 0 10 10" version="1.1" xmlns="http://www.w3.org/2000/svg" xmlns:xlink="http://www.w3.org/1999/xlink">
    <!-- Generator: sketchtool 3.7.2 (28276) - http://www.bohemiancoding.com/sketch -->
    <title>C6BDE9F5-5355-4693-B016-A163CE105542</title>
    <desc>Created with sketchtool.</desc>
    <defs></defs>
    <g id="Search-and-Browse" stroke="none" stroke-width="1" fill="none" fill-rule="evenodd">
        <g id="ListViewDynamic" transform="translate(-128.000000, -435.000000)">
            <g id="offer" transform="translate(128.000000, 435.000000)">
                <path d="M0.0310217889,0.442762675 L8.14149463e-06,4.97191242 C-0.000686193895,5.08277464 0.0430569356,5.18947084 0.121285389,5.26793074 L4.71801711,9.86443102 C4.89877576,10.0451897 5.19178529,10.0451897 5.37254394,9.86443102 L9.86443102,5.37277538 C10.0451897,5.19201674 10.0451897,4.89877576 9.86443102,4.71801711 L5.26769929,0.121516834 C5.18947084,0.0430569355 5.08277464,-0.000686194005 4.97191242,8.14138398e-06 L0.442762675,0.0310217888 C0.215946448,0.0326419047 0.0326419048,0.216177893 0.0310217889,0.442762675" id="Fill-1" fill="#388E3C"></path>
                <path d="M2.5,3.33333333 C2.039801,3.33333333 1.66666667,2.960199 1.66666667,2.5 C1.66666667,2.039801 2.039801,1.66666667 2.5,1.66666667 C2.960199,1.66666667 3.33333333,2.039801 3.33333333,2.5 C3.33333333,2.960199 2.960199,3.33333333 2.5,3.33333333 Z" id="Fill-4" fill="#FFFFFF"></path>
            </g>
        </g>
    </g>
</svg>