<?xml version="1.0" encoding="UTF-8" standalone="no"?>
<svg width="21px" height="20px" viewBox="0 0 21 20" version="1.1" xmlns="http://www.w3.org/2000/svg" xmlns:xlink="http://www.w3.org/1999/xlink">
    <!-- Generator: sketchtool 3.8.2 (29753) - http://www.bohemiancoding.com/sketch -->
    <title>95C51333-3FF9-49E5-89DA-54ADADBC2B64</title>
    <desc>Created with sketchtool.</desc>
    <defs></defs>
    <g id="Final" stroke="none" stroke-width="1" fill="none" fill-rule="evenodd">
        <g id="Elements" transform="translate(-325.000000, -502.000000)" fill="#C2C2C2">
            <path d="M335.5,502 C329.98,502 325.5,506.48 325.5,512 C325.5,517.52 329.98,522 335.5,522 C341.02,522 345.5,517.52 345.5,512 C345.5,506.48 341.02,502 335.5,502 L335.5,502 Z M336.125,517 L334.875,517 L334.875,515.75 L336.125,515.75 L336.125,517 L336.125,517 Z M337.898438,511.6875 L337.195312,512.3775 C336.632812,512.925 336.28125,513.375 336.28125,514.5 L334.71875,514.5 L334.71875,514.125 C334.71875,513.3 335.070312,512.55 335.632812,512.0025 L336.601562,511.0575 C336.890625,510.7875 337.0625,510.4125 337.0625,510 C337.0625,509.175 336.359375,508.5 335.5,508.5 C334.640625,508.5 333.9375,509.175 333.9375,510 L332.375,510 C332.375,508.3425 333.773438,507 335.5,507 C337.226562,507 338.625,508.3425 338.625,510 C338.625,510.66 338.34375,511.26 337.898438,511.6875 L337.898438,511.6875 Z" id="Shape"></path>
        </g>
    </g>
</svg>